<svg version="1.1" viewBox="0.0 0.0 512.0 512.0" fill="none" stroke="none" stroke-linecap="square" stroke-miterlimit="10" xmlns:xlink="http://www.w3.org/1999/xlink" xmlns="http://www.w3.org/2000/svg"><clipPath id="p.0"><path d="m0 0l512.0 0l0 512.0l-512.0 0l0 -512.0z" clip-rule="nonzero"/></clipPath><g clip-path="url(#p.0)"><path fill="#000000" fill-opacity="0.0" d="m0 0l512.0 0l0 512.0l-512.0 0z" fill-rule="evenodd"/><path fill="#005cb2" d="m0 85.33504l0 0c0 -47.12924 38.2058 -85.33504 85.33504 -85.33504l341.3299 0l0 0c22.632263 0 44.337585 8.99063 60.341003 24.994055c16.003418 16.003424 24.99405 37.708725 24.99405 60.34098l0 341.3299c0 47.129242 -38.20581 85.33505 -85.33505 85.33505l-341.3299 0c-47.12924 0 -85.33504 -38.20581 -85.33504 -85.33505z" fill-rule="evenodd"/><path fill="#ffffff" d="m460.45697 268.5893l0 0c-6.2113037 118.22537 -97.14789 210.29593 -206.52486 209.10019c-109.37698 -1.1957397 -198.57755 -95.235596 -202.58221 -213.57266c-4.004677 -118.33705 78.60043 -219.19106 187.60336 -229.04819c109.002945 -9.857122 205.91893 74.76281 220.10466 192.1792l-52.648773 7.4548492l0 0c-10.242859 -89.3772 -81.91589 -153.99289 -162.70651 -146.68546c-80.79062 7.3074265 -142.12244 83.95325 -139.23071 173.99536c2.891739 90.04208 68.98419 161.63174 150.03793 162.51724c81.05374 0.8854675 148.39929 -69.24643 152.88263 -159.20795z" fill-rule="evenodd"/><path fill="#ffffff" d="m278.9029 256.0l0 0c0 -69.89229 41.923065 -126.55118 93.63779 -126.55118l0 0c24.83429 0 48.65143 13.333023 66.211914 37.06598c17.560516 23.732956 27.425873 55.921738 27.425873 89.4852l0 0c0 69.89227 -41.923065 126.55118 -93.63779 126.55118l0 0c-51.71472 0 -93.63779 -56.658905 -93.63779 -126.55118zm63.471436 0c0 34.837982 13.505951 63.079742 30.166351 63.079742c16.66043 0 30.166351 -28.24176 30.166351 -63.079742c0 -34.837982 -13.50592 -63.079742 -30.166351 -63.079742l0 0c-16.6604 0 -30.166351 28.24176 -30.166351 63.079742z" fill-rule="evenodd"/><path stroke="#005cb2" stroke-width="24.0" stroke-linejoin="round" stroke-linecap="butt" d="m278.9029 256.0l0 0c0 -69.89229 41.923065 -126.55118 93.63779 -126.55118l0 0c24.83429 0 48.65143 13.333023 66.211914 37.06598c17.560516 23.732956 27.425873 55.921738 27.425873 89.4852l0 0c0 69.89227 -41.923065 126.55118 -93.63779 126.55118l0 0c-51.71472 0 -93.63779 -56.658905 -93.63779 -126.55118zm63.471436 0c0 34.837982 13.505951 63.079742 30.166351 63.079742c16.66043 0 30.166351 -28.24176 30.166351 -63.079742c0 -34.837982 -13.50592 -63.079742 -30.166351 -63.079742l0 0c-16.6604 0 -30.166351 28.24176 -30.166351 63.079742z" fill-rule="evenodd"/><path fill="#ffffff" d="m201.38583 148.38857l0 0c0 -3.3369598 2.7051392 -6.0421143 6.0421143 -6.0421143l24.167725 0l0 0c1.602478 0 3.1393127 0.6365814 4.2724304 1.7696991c1.1331177 1.1331177 1.7696991 2.6699524 1.7696991 4.272415l0 215.22285c0 3.336975 -2.7051544 6.0421143 -6.0421295 6.0421143l-24.167725 0c-3.336975 0 -6.0421143 -2.7051392 -6.0421143 -6.0421143z" fill-rule="evenodd"/><path fill="#ffffff" d="m178.3622 148.38857l0 0c0 -3.3369598 2.7051544 -6.0421143 6.0421295 -6.0421143l70.21498 0c1.6024628 0 3.1392975 0.6365814 4.272415 1.7696991c1.1331177 1.1331177 1.7696838 2.6699524 1.7696838 4.272415l0 24.16774c0 3.336975 -2.7051392 6.0421143 -6.042099 6.0421143l-70.21498 0c-3.336975 0 -6.0421295 -2.7051392 -6.0421295 -6.0421143z" fill-rule="evenodd"/><path fill="#ffffff" d="m178.3622 339.4437l0 0c0 -3.336975 2.7051544 -6.0421143 6.0421295 -6.0421143l70.21498 0c1.6024628 0 3.1392975 0.63656616 4.272415 1.7696838c1.1331177 1.1331177 1.7696838 2.6699524 1.7696838 4.2724304l0 24.167725c0 3.336975 -2.7051392 6.0421143 -6.042099 6.0421143l-70.21498 0c-3.336975 0 -6.0421295 -2.7051392 -6.0421295 -6.0421143z" fill-rule="evenodd"/><path fill="#ffffff" d="m351.40683 249.46988l0 0c0 -1.803299 1.461853 -3.265152 3.2651367 -3.265152l35.737427 0c0.8659668 0 1.6964722 0.3440094 2.3088074 0.9563446c0.6123352 0.6123352 0.95632935 1.4428406 0.95632935 2.3088074l0 13.060242c0 1.8032837 -1.461853 3.2651672 -3.2651367 3.2651672l-35.737427 0c-1.8032837 0 -3.2651367 -1.4618835 -3.2651367 -3.2651672z" fill-rule="evenodd"/></g></svg>